HIERARCHY
ROOT mixamorig:Hips
{
	OFFSET 0.000000 0.397652 967.588257
	CHANNELS 6 Xposition Yposition Zposition Xrotation Yrotation Zrotation
	JOINT mixamorig:Spine
	{
		OFFSET 0.000031 9.332268 96.731445
		CHANNELS 6 Xposition Yposition Zposition Xrotation Yrotation Zrotation
		JOINT mixamorig:Spine1
		{
			OFFSET 0.000000 9.718329 111.790283
			CHANNELS 3 Xrotation Yrotation Zrotation
			JOINT mixamorig:Spine2
			{
				OFFSET 0.000000 11.185614 128.667847
				CHANNELS 3 Xrotation Yrotation Zrotation
				JOINT mixamorig:Neck
				{
					OFFSET 0.000000 11.280855 144.446411
					CHANNELS 6 Xposition Yposition Zposition Xrotation Yrotation Zrotation
					JOINT mixamorig:Head
					{
						OFFSET 0.000000 -5.374390 35.128662
						CHANNELS 6 Xposition Yposition Zposition Xrotation Yrotation Zrotation
						JOINT mixamorig:HeadTop_End
						{
							OFFSET 0.000000 -33.815300 241.900635
							CHANNELS 6 Xposition Yposition Zposition Xrotation Yrotation Zrotation
							End Site
							{
								OFFSET 0.000000 0.075751 184.607910
							}
						}
						JOINT mixamorig:LeftEye
						{
							OFFSET 32.172596 -110.007034 103.953613
							CHANNELS 6 Xposition Yposition Zposition Xrotation Yrotation Zrotation
							End Site
							{
								OFFSET 0.000000 0.075859 184.607666
							}
						}
						JOINT mixamorig:RightEye
						{
							OFFSET -32.625195 -110.007050 103.962646
							CHANNELS 6 Xposition Yposition Zposition Xrotation Yrotation Zrotation
							End Site
							{
								OFFSET 0.000000 0.075928 184.607666
							}
						}
					}
				}
				JOINT mixamorig:LeftShoulder
				{
					OFFSET 69.790291 11.520010 120.819580
					CHANNELS 6 Xposition Yposition Zposition Xrotation Yrotation Zrotation
					JOINT mixamorig:LeftArm
					{
						OFFSET 143.759308 0.125023 -23.863037
						CHANNELS 3 Xrotation Yrotation Zrotation
						JOINT mixamorig:LeftForeArm
						{
							OFFSET 258.965637 0.000000 0.000000
							CHANNELS 3 Xrotation Yrotation Zrotation
							JOINT mixamorig:LeftHand
							{
								OFFSET 268.866760 0.000000 0.000000
								CHANNELS 3 Xrotation Yrotation Zrotation
								JOINT mixamorig:LeftHandPinky1
								{
									OFFSET 87.101868 53.394665 -0.191162
									CHANNELS 6 Xposition Yposition Zposition Xrotation Yrotation Zrotation
									JOINT mixamorig:LeftHandPinky2
									{
										OFFSET 20.604248 0.000000 0.000000
										CHANNELS 3 Xrotation Yrotation Zrotation
										JOINT mixamorig:LeftHandPinky3
										{
											OFFSET 17.707581 0.000000 0.000000
											CHANNELS 3 Xrotation Yrotation Zrotation
											JOINT mixamorig:LeftHandPinky4
											{
												OFFSET 19.202087 0.000000 0.000000
												CHANNELS 3 Xrotation Yrotation Zrotation
												End Site
												{
													OFFSET 19.202087 0.000000 0.000000
												}
											}
										}
									}
								}
								JOINT mixamorig:LeftHandRing1
								{
									OFFSET 104.340210 29.666088 -0.662720
									CHANNELS 6 Xposition Yposition Zposition Xrotation Yrotation Zrotation
									JOINT mixamorig:LeftHandRing2
									{
										OFFSET 26.164307 0.000000 0.000000
										CHANNELS 3 Xrotation Yrotation Zrotation
										JOINT mixamorig:LeftHandRing3
										{
											OFFSET 21.622192 0.000000 0.000000
											CHANNELS 3 Xrotation Yrotation Zrotation
											JOINT mixamorig:LeftHandRing4
											{
												OFFSET 24.893311 0.000000 0.000000
												CHANNELS 3 Xrotation Yrotation Zrotation
												End Site
												{
													OFFSET 24.893311 0.000000 0.000000
												}
											}
										}
									}
								}
								JOINT mixamorig:LeftHandMiddle1
								{
									OFFSET 116.450012 0.000000 0.000000
									CHANNELS 6 Xposition Yposition Zposition Xrotation Yrotation Zrotation
									JOINT mixamorig:LeftHandMiddle2
									{
										OFFSET 28.784912 0.000000 0.000000
										CHANNELS 3 Xrotation Yrotation Zrotation
										JOINT mixamorig:LeftHandMiddle3
										{
											OFFSET 23.377075 0.000000 0.000000
											CHANNELS 3 Xrotation Yrotation Zrotation
											JOINT mixamorig:LeftHandMiddle4
											{
												OFFSET 29.789612 0.000000 0.000000
												CHANNELS 3 Xrotation Yrotation Zrotation
												End Site
												{
													OFFSET 29.789612 0.000000 0.000000
												}
											}
										}
									}
								}
								JOINT mixamorig:LeftHandIndex1
								{
									OFFSET 114.299683 -34.524841 -0.469971
									CHANNELS 6 Xposition Yposition Zposition Xrotation Yrotation Zrotation
									JOINT mixamorig:LeftHandIndex2
									{
										OFFSET 24.405151 0.000000 0.000000
										CHANNELS 3 Xrotation Yrotation Zrotation
										JOINT mixamorig:LeftHandIndex3
										{
											OFFSET 20.377502 0.000000 0.000000
											CHANNELS 3 Xrotation Yrotation Zrotation
											JOINT mixamorig:LeftHandIndex4
											{
												OFFSET 24.587708 0.000000 0.000000
												CHANNELS 3 Xrotation Yrotation Zrotation
												End Site
												{
													OFFSET 24.587708 0.000000 0.000000
												}
											}
										}
									}
								}
								JOINT mixamorig:LeftHandThumb1
								{
									OFFSET 27.695435 -23.022173 -32.867065
									CHANNELS 6 Xposition Yposition Zposition Xrotation Yrotation Zrotation
									JOINT mixamorig:LeftHandThumb2
									{
										OFFSET 30.385803 -17.550455 -17.536011
										CHANNELS 6 Xposition Yposition Zposition Xrotation Yrotation Zrotation
										JOINT mixamorig:LeftHandThumb3
										{
											OFFSET 31.180664 -18.009558 -17.994629
											CHANNELS 3 Xrotation Yrotation Zrotation
											JOINT mixamorig:LeftHandThumb4
											{
												OFFSET 21.373962 -12.345375 -12.335205
												CHANNELS 3 Xrotation Yrotation Zrotation
												End Site
												{
													OFFSET 21.374084 -12.345289 -12.335449
												}
											}
										}
									}
								}
							}
						}
					}
				}
				JOINT mixamorig:RightShoulder
				{
					OFFSET -69.078392 10.946230 120.819824
					CHANNELS 6 Xposition Yposition Zposition Xrotation Yrotation Zrotation
					JOINT mixamorig:RightArm
					{
						OFFSET -144.806183 -0.681892 -23.862671
						CHANNELS 3 Xrotation Yrotation Zrotation
						JOINT mixamorig:RightForeArm
						{
							OFFSET -259.772034 0.000000 0.000000
							CHANNELS 3 Xrotation Yrotation Zrotation
							JOINT mixamorig:RightHand
							{
								OFFSET -272.703766 0.000000 0.000000
								CHANNELS 3 Xrotation Yrotation Zrotation
								JOINT mixamorig:RightHandThumb1
								{
									OFFSET -26.220764 -23.595608 -31.879150
									CHANNELS 6 Xposition Yposition Zposition Xrotation Yrotation Zrotation
									JOINT mixamorig:RightHandThumb2
									{
										OFFSET -29.154907 -16.839527 -16.825806
										CHANNELS 6 Xposition Yposition Zposition Xrotation Yrotation Zrotation
										JOINT mixamorig:RightHandThumb3
										{
											OFFSET -29.892456 -17.265484 -17.251221
											CHANNELS 6 Xposition Yposition Zposition Xrotation Yrotation Zrotation
											JOINT mixamorig:RightHandThumb4
											{
												OFFSET -19.634216 -11.340481 -11.331177
												CHANNELS 3 Xrotation Yrotation Zrotation
												End Site
												{
													OFFSET -19.634155 -11.340462 -11.331177
												}
											}
										}
									}
								}
								JOINT mixamorig:RightHandIndex1
								{
									OFFSET -110.723389 -33.243320 0.390747
									CHANNELS 6 Xposition Yposition Zposition Xrotation Yrotation Zrotation
									JOINT mixamorig:RightHandIndex2
									{
										OFFSET -25.451904 0.000000 0.000000
										CHANNELS 3 Xrotation Yrotation Zrotation
										JOINT mixamorig:RightHandIndex3
										{
											OFFSET -20.847168 0.000000 0.000000
											CHANNELS 3 Xrotation Yrotation Zrotation
											JOINT mixamorig:RightHandIndex4
											{
												OFFSET -22.926208 0.000000 0.000000
												CHANNELS 3 Xrotation Yrotation Zrotation
												End Site
												{
													OFFSET -22.926208 0.000000 0.000000
												}
											}
										}
									}
								}
								JOINT mixamorig:RightHandMiddle1
								{
									OFFSET -114.966125 0.000000 0.000000
									CHANNELS 6 Xposition Yposition Zposition Xrotation Yrotation Zrotation
									JOINT mixamorig:RightHandMiddle2
									{
										OFFSET -29.163940 0.000000 0.000000
										CHANNELS 3 Xrotation Yrotation Zrotation
										JOINT mixamorig:RightHandMiddle3
										{
											OFFSET -24.051331 0.000000 0.000000
											CHANNELS 3 Xrotation Yrotation Zrotation
											JOINT mixamorig:RightHandMiddle4
											{
												OFFSET -29.831299 0.000000 0.000000
												CHANNELS 3 Xrotation Yrotation Zrotation
												End Site
												{
													OFFSET -29.831299 0.000000 0.000000
												}
											}
										}
									}
								}
								JOINT mixamorig:RightHandRing1
								{
									OFFSET -106.183838 30.576897 0.867798
									CHANNELS 6 Xposition Yposition Zposition Xrotation Yrotation Zrotation
									JOINT mixamorig:RightHandRing2
									{
										OFFSET -25.971924 0.000000 0.000000
										CHANNELS 3 Xrotation Yrotation Zrotation
										JOINT mixamorig:RightHandRing3
										{
											OFFSET -21.707886 0.000000 0.000000
											CHANNELS 3 Xrotation Yrotation Zrotation
											JOINT mixamorig:RightHandRing4
											{
												OFFSET -21.446777 0.000000 0.000000
												CHANNELS 3 Xrotation Yrotation Zrotation
												End Site
												{
													OFFSET -21.446777 0.000000 0.000000
												}
											}
										}
									}
								}
								JOINT mixamorig:RightHandPinky1
								{
									OFFSET -88.638245 55.841194 -0.037964
									CHANNELS 6 Xposition Yposition Zposition Xrotation Yrotation Zrotation
									JOINT mixamorig:RightHandPinky2
									{
										OFFSET -19.054565 0.000000 0.000000
										CHANNELS 3 Xrotation Yrotation Zrotation
										JOINT mixamorig:RightHandPinky3
										{
											OFFSET -18.459290 0.000000 0.000000
											CHANNELS 3 Xrotation Yrotation Zrotation
											JOINT mixamorig:RightHandPinky4
											{
												OFFSET -18.842529 0.000000 0.000000
												CHANNELS 3 Xrotation Yrotation Zrotation
												End Site
												{
													OFFSET -18.842529 0.000000 0.000000
												}
											}
										}
									}
								}
							}
						}
					}
				}
			}
		}
	}
	JOINT mixamorig:RightUpLeg
	{
		OFFSET -112.362793 -5.201166 -53.494385
		CHANNELS 6 Xposition Yposition Zposition Xrotation Yrotation Zrotation
		JOINT mixamorig:RightLeg
		{
			OFFSET -0.000031 -16.498615 -398.659180
			CHANNELS 3 Xrotation Yrotation Zrotation
			JOINT mixamorig:RightFoot
			{
				OFFSET -0.000031 42.156204 -405.779236
				CHANNELS 3 Xrotation Yrotation Zrotation
				JOINT mixamorig:RightToeBase
				{
					OFFSET -11.908974 -153.147858 -105.511368
					CHANNELS 3 Xrotation Yrotation Zrotation
					JOINT mixamorig:RightToe_End
					{
						OFFSET -4.373909 -77.734619 -0.614441
						CHANNELS 3 Xrotation Yrotation Zrotation
						End Site
						{
							OFFSET -4.373917 -77.734604 -0.614450
						}
					}
				}
			}
		}
	}
	JOINT mixamorig:LeftUpLeg
	{
		OFFSET 111.449074 -5.201073 -53.494507
		CHANNELS 6 Xposition Yposition Zposition Xrotation Yrotation Zrotation
		JOINT mixamorig:LeftLeg
		{
			OFFSET 0.000023 -16.498587 -398.658691
			CHANNELS 3 Xrotation Yrotation Zrotation
			JOINT mixamorig:LeftFoot
			{
				OFFSET 0.000023 42.156281 -405.779968
				CHANNELS 3 Xrotation Yrotation Zrotation
				JOINT mixamorig:LeftToeBase
				{
					OFFSET 11.908859 -153.147461 -105.511017
					CHANNELS 6 Xposition Yposition Zposition Xrotation Yrotation Zrotation
					JOINT mixamorig:LeftToe_End
					{
						OFFSET 4.373550 -77.734360 -0.614578
						CHANNELS 3 Xrotation Yrotation Zrotation
						End Site
						{
							OFFSET 4.373543 -77.734329 -0.614555
						}
					}
				}
			}
		}
	}
}
MOTION
Frames: 4
Frame Time: 0.033333
4.329602 11.764238 938.047546 -1.062605 4.419380 10.114881 0.000024 9.332278 96.731529 2.571307 -3.284157 -0.767079 1.622438 -0.846218 -2.278578 -2.933766 -0.252648 -2.284973 -0.000001 11.280850 144.446320 -3.347804 0.983280 -1.151811 -0.000003 -5.374388 35.128777 -1.370229 -0.311105 -3.841444 0.000001 -33.815296 241.900635 0.000000 0.000000 -0.000000 32.172604 -110.007042 103.953613 -0.000000 0.000000 -0.000000 -32.625198 -110.007042 103.962524 -0.000000 0.000000 -0.000000 69.790291 11.520004 120.819427 7.156642 -2.938976 -20.956822 -17.038686 76.245689 19.156700 -0.004496 -0.013980 -36.305208 18.024266 -5.111779 -20.037875 87.101776 53.394627 -0.191163 -4.542733 30.425812 15.723176 -1.000648 29.067151 3.054214 -0.105459 6.722305 1.538110 -0.000001 -0.000000 -0.000000 104.340218 29.666088 -0.662772 -4.566595 34.022166 9.659053 -0.195032 17.162420 2.086709 0.028854 12.582651 1.236324 0.000000 -0.000002 0.000000 116.450027 -0.000031 -0.000018 -1.643022 16.341088 7.940362 -1.144898 27.051529 3.854529 -0.256232 15.979284 1.914140 -0.000001 0.000001 -0.000002 114.299690 -34.524895 -0.470074 0.565080 -3.978181 3.510487 -0.478103 16.801461 2.568142 -0.032277 3.850856 0.177310 -0.000003 0.000001 0.000001 27.695475 -23.022104 -32.867100 32.254376 -20.503661 9.509987 30.385729 -17.550381 -17.536013 -12.570859 11.728219 18.437112 7.672298 -1.384629 -11.224659 -0.000002 -0.000000 -0.000001 -69.078415 10.946218 120.819679 -0.360087 -5.371885 5.271909 12.851285 -73.576765 -9.610517 -0.003612 0.012663 32.516748 26.048284 -4.002941 8.402979 -26.220600 -23.595562 -31.879269 15.112099 17.039481 -8.537978 -29.154921 -16.839504 -16.825802 7.321706 13.263566 -5.464898 -29.892494 -17.265575 -17.251429 -12.568201 -8.989606 7.544120 0.000002 -0.000001 -0.000002 -110.723366 -33.243309 0.390695 -0.780780 -10.771796 0.822017 -1.068925 -26.697326 -3.787775 -0.352176 -17.432562 -0.611631 0.000001 0.000002 -0.000000 -114.965950 0.000015 -0.000121 -2.605384 -22.871471 -8.801061 -2.222405 -37.895638 -5.522663 -1.026509 -31.033490 -3.575551 0.000000 -0.000000 0.000001 -106.183830 30.576904 0.867763 -6.183640 -40.443558 -11.402606 -0.428498 -23.776524 -2.825418 -0.206502 -20.215079 -0.214960 0.000000 0.000002 -0.000005 -88.638077 55.841209 -0.038037 -7.699572 -44.338122 -14.427736 -3.357508 -48.903823 -6.571924 -2.818447 -43.212612 -3.551283 -0.000000 -0.000002 0.000001 -112.362816 -5.201153 -53.494457 -10.129680 -9.606886 -13.002326 16.421035 1.938801 1.246811 -7.134995 5.267074 -4.740379 -2.772867 -0.000018 -0.000009 -0.000000 0.000000 -0.000000 111.449074 -5.201091 -53.494526 -23.575496 -2.942287 -0.868065 64.100308 -6.922116 2.167962 2.799114 1.267299 0.180205 11.908856 -153.147446 -105.511032 -3.383075 2.189186 0.068451 -0.000004 -0.000000 -0.000001 
6.998765 11.863365 941.390747 -0.003287 3.468282 8.483823 0.000025 9.332263 96.731415 2.207988 -2.730759 -0.254692 1.314443 -0.284936 -1.249784 -3.211721 0.283123 -1.239570 -0.000000 11.280862 144.446426 -2.907596 0.731382 -1.309872 0.000002 -5.374382 35.128616 -0.443885 -0.843906 -4.256789 0.000003 -33.815289 241.900635 -0.000000 -0.000000 0.000000 32.172600 -110.007042 103.953735 -0.000000 -0.000000 0.000000 -32.625198 -110.007034 103.962646 -0.000000 -0.000000 -0.000000 69.790291 11.520035 120.819336 7.222585 -2.278894 -21.038892 -31.062177 76.441845 36.135133 -0.003657 -0.012776 -32.694111 24.901873 3.851875 -15.027094 87.101921 53.394688 -0.191169 -4.714816 31.182744 16.736031 -0.999323 29.048402 3.051682 -0.105081 6.703536 1.536185 -0.000002 0.000003 -0.000000 104.340271 29.666088 -0.662858 -4.995799 35.827457 10.294710 -0.190315 16.992534 2.068499 0.030896 12.411839 1.219059 0.000001 -0.000001 0.000001 116.450096 0.000034 -0.000095 -1.872990 17.923776 9.188451 -1.143251 27.030284 3.851662 -0.255694 15.962618 1.912328 0.000000 0.000001 -0.000001 114.299797 -34.524834 -0.470069 1.512506 -0.581646 4.060514 -0.487795 17.006920 2.591657 -0.033711 4.056480 0.198170 -0.000004 0.000002 -0.000003 27.695587 -23.022171 -32.867218 32.271616 -23.769355 10.906292 30.385689 -17.550373 -17.536022 -7.142549 13.680647 11.220419 6.185001 -2.239244 -20.002887 -0.000002 0.000003 -0.000002 -69.078384 10.946226 120.819740 -0.326297 -5.453184 5.601232 8.363717 -72.527149 -8.309170 -0.003833 0.012962 33.397108 26.873581 -3.246366 6.508253 -26.220524 -23.595592 -31.879086 14.735991 17.329324 -8.358323 -29.154949 -16.839561 -16.825771 7.073710 13.072405 -5.834950 -29.892405 -17.265495 -17.251265 -12.607893 -8.963065 7.797568 0.000000 0.000002 0.000002 -110.723457 -33.243309 0.390590 -0.787813 -10.971509 1.170950 -1.070043 -26.712363 -3.789801 -0.352652 -17.447662 -0.613328 -0.000002 -0.000002 -0.000000 -114.966042 0.000004 -0.000184 -2.686553 -23.433868 -8.134467 -2.224124 -37.909179 -5.525075 -1.027194 -31.043220 -3.576893 0.000000 -0.000001 0.000003 -106.183739 30.576889 0.867736 -6.242601 -40.661247 -11.426055 -0.430835 -23.830573 -2.831722 -0.208035 -20.269619 -0.220907 -0.000001 -0.000003 -0.000003 -88.638062 55.841232 -0.038088 -7.803779 -44.715459 -14.393237 -3.364224 -48.939422 -6.580579 -2.823783 -43.248269 -3.558623 -0.000002 0.000003 -0.000001 -112.362762 -5.201178 -53.494453 -7.098641 -8.979195 -13.112504 16.244265 2.331574 1.140531 -9.699160 4.718649 -2.419711 -2.706981 -0.000015 -0.000006 -0.000000 -0.000000 0.000000 111.449074 -5.201124 -53.494568 -28.772892 -0.046618 -1.218001 57.295896 -6.658772 4.001439 0.031728 3.227824 0.598849 11.908858 -153.147446 -105.511009 -2.460678 2.014097 0.057913 -0.000003 -0.000000 0.000001 
10.429192 12.110189 939.411316 1.144823 2.360864 6.049984 0.000030 9.332271 96.731674 1.750612 -2.064350 0.300947 1.189323 0.010957 -0.070746 -3.311520 0.539993 -0.061373 0.000002 11.280858 144.446350 -3.097579 1.090769 -1.251862 0.000001 -5.374387 35.128834 0.091786 -0.959723 -4.499639 -0.000001 -33.815311 241.900513 0.000000 -0.000000 -0.000000 32.172600 -110.007050 103.953613 0.000000 -0.000000 -0.000000 -32.625198 -110.007042 103.962524 0.000000 -0.000000 -0.000000 69.790291 11.520018 120.819695 7.438288 -0.233982 -19.869825 -40.603074 73.718942 49.356569 -0.003498 -0.012529 -32.035086 35.389485 15.024067 -11.519700 87.101883 53.394688 -0.191311 -4.711206 31.153845 16.889067 -1.001518 29.079640 3.055865 -0.105732 6.734813 1.539398 0.000001 0.000001 -0.000002 104.340233 29.666096 -0.662827 -5.143614 36.397187 10.606789 -0.188526 16.927063 2.061464 0.031692 12.346018 1.212411 -0.000001 -0.000001 -0.000001 116.450089 0.000011 0.000086 -1.956617 18.463663 10.021501 -1.141570 27.008675 3.848721 -0.255197 15.946660 1.910596 -0.000000 0.000005 -0.000002 114.299843 -34.524845 -0.470091 2.684686 1.309129 4.353960 -0.493725 17.132018 2.606011 -0.034617 4.181573 0.210863 -0.000000 0.000001 -0.000002 27.695555 -23.022184 -32.867111 32.518111 -27.220372 12.494018 30.385868 -17.550446 -17.536051 1.469029 14.512176 12.030546 5.610538 -1.739462 -24.198945 -0.000001 0.000001 -0.000002 -69.078400 10.946216 120.819756 -0.353462 -3.843388 6.397168 5.496905 -72.670549 -5.395069 -0.003952 0.013112 33.865673 26.377140 -3.107778 5.173816 -26.220652 -23.595604 -31.879368 14.679185 17.023620 -7.625763 -29.154966 -16.839527 -16.825836 6.504308 13.122907 -6.145759 -29.892424 -17.265518 -17.251339 -12.643240 -8.939826 8.024444 -0.000002 0.000001 -0.000000 -110.723526 -33.243332 0.390786 -0.805368 -11.271515 1.498159 -1.064477 -26.637173 -3.779708 -0.350152 -17.372315 -0.604889 0.000001 -0.000003 0.000001 -114.966103 0.000019 -0.000293 -2.773007 -24.031677 -7.422673 -2.225565 -37.920695 -5.527122 -1.027699 -31.050081 -3.577835 0.000000 -0.000000 0.000001 -106.183769 30.576881 0.867786 -6.340289 -41.012117 -11.487682 -0.434137 -23.906395 -2.840587 -0.210193 -20.346121 -0.229313 -0.000001 -0.000001 0.000004 -88.638168 55.841148 -0.038130 -7.949536 -45.243747 -14.326675 -3.352122 -48.875263 -6.564993 -2.814174 -43.184014 -3.545387 -0.000001 -0.000002 0.000005 -112.362785 -5.201170 -53.494232 -4.296520 -7.687147 -13.151530 16.555702 2.464226 2.267026 -13.216322 4.177321 0.262850 -2.410954 -0.000016 -0.000007 0.000000 -0.000000 0.000000 111.449074 -5.201055 -53.494495 -32.155803 1.668012 -1.067927 47.398538 -5.920535 4.936237 -0.810961 3.380444 0.742021 11.908871 -153.147446 -105.511024 -0.131232 0.000001 -0.000002 0.000003 0.000000 0.000001 
14.226266 11.533087 934.507263 2.106618 0.979848 3.242334 0.000031 9.332276 96.731583 1.392697 -1.511042 0.735670 1.075723 0.532811 0.807335 -3.411383 1.023794 0.838038 0.000001 11.280858 144.446381 -3.475573 1.491049 -1.039986 0.000002 -5.374386 35.128456 0.208548 -0.790996 -4.087416 -0.000003 -33.815300 241.900757 -0.000000 0.000000 0.000000 32.172596 -110.007050 103.953735 -0.000000 -0.000000 0.000000 -32.625202 -110.007057 103.962524 -0.000000 -0.000000 0.000000 69.790276 11.520002 120.819618 7.600167 2.030673 -16.965546 -44.194336 70.261924 56.726562 -0.003495 -0.012519 -32.026993 46.989366 24.552227 -9.684640 87.101929 53.394657 -0.191198 -4.192309 28.673998 15.518243 -1.016526 29.290081 3.084295 -0.110109 6.945588 1.561014 0.000000 0.000000 -0.000004 104.340393 29.666065 -0.662688 -4.501925 33.589883 10.065990 -0.189985 16.980499 2.067183 0.031047 12.399772 1.217843 -0.000001 -0.000002 -0.000004 116.450218 -0.000011 0.000221 -1.532602 15.410828 9.354944 -1.133798 26.908432 3.835209 -0.251986 15.845120 1.899619 0.000000 -0.000000 -0.000002 114.299835 -34.524834 -0.470011 4.219066 -1.079425 3.609904 -0.509794 17.466689 2.644498 -0.037207 4.516653 0.244880 0.000000 0.000002 -0.000001 27.695520 -23.022139 -32.867012 32.907988 -30.370433 13.891493 30.385740 -17.550451 -17.535982 1.548588 13.695434 15.956196 5.392026 -2.350236 -25.896123 0.000001 0.000003 0.000004 -69.078415 10.946217 120.819931 -0.356013 -2.221096 7.924400 6.661997 -72.984430 0.930030 -0.003979 0.013172 33.995665 24.614887 -3.464692 4.758748 -26.220661 -23.595535 -31.879097 14.642223 16.530530 -6.515823 -29.155037 -16.839476 -16.825880 5.949683 13.222757 -6.513872 -29.892517 -17.265566 -17.251436 -12.672188 -8.921064 8.210865 -0.000003 -0.000001 0.000003 -110.723404 -33.243324 0.390736 -0.858541 -11.858073 1.656119 -1.049662 -26.435730 -3.752783 -0.343457 -17.170585 -0.582330 -0.000003 0.000000 -0.000000 -114.966171 -0.000008 -0.000091 -2.874863 -24.718185 -6.734969 -2.226431 -37.927774 -5.528375 -1.027922 -31.052991 -3.578233 0.000001 -0.000001 -0.000000 -106.183929 30.576897 0.867898 -6.499389 -41.589794 -11.522421 -0.435553 -23.939104 -2.844402 -0.211151 -20.379577 -0.232983 -0.000001 0.000001 -0.000003 -88.638237 55.841202 -0.038010 -8.104474 -45.813979 -14.178193 -3.336984 -48.794585 -6.545453 -2.802130 -43.103203 -3.528795 -0.000001 -0.000000 -0.000003 -112.362785 -5.201168 -53.494450 -1.046794 -5.920525 -13.522911 16.348657 2.520263 5.656494 -16.718170 4.076271 0.634549 -2.392257 -0.000015 -0.000006 0.000000 0.000000 -0.000000 111.449089 -5.201141 -53.494560 -34.266714 2.536491 -0.024671 35.552938 -4.999779 5.067586 -0.707752 2.287879 0.556499 11.908859 -153.147446 -105.510986 -0.230125 -0.000000 0.000003 -0.000000 0.000000 -0.000000 
